<svg width="40" height="40" viewBox="0 0 40 40" fill="none" xmlns="http://www.w3.org/2000/svg">
<g clip-path="url(#clip0_7_171)">
<path d="M30 5C30 2.23858 25.5228 0 20 0C14.4772 0 10 2.23858 10 5V35C10 37.7614 14.4772 40 20 40C25.5228 40 30 37.7614 30 35V5Z" fill="#333333"/>
<path d="M35 10H5C2.23858 10 0 14.4772 0 20C0 25.5228 2.23858 30 5 30H35C37.7614 30 40 25.5228 40 20C40 14.4772 37.7614 10 35 10Z" fill="#333333"/>
<path d="M14.5 6.8499C15.5218 6.8499 16.35 6.02163 16.35 4.9999C16.35 3.97818 15.5218 3.1499 14.5 3.1499C13.4783 3.1499 12.65 3.97818 12.65 4.9999C12.65 6.02163 13.4783 6.8499 14.5 6.8499Z" fill="white"/>
<path d="M25.5 36.8499C26.5218 36.8499 27.35 36.0216 27.35 34.9999C27.35 33.9782 26.5218 33.1499 25.5 33.1499C24.4783 33.1499 23.65 33.9782 23.65 34.9999C23.65 36.0216 24.4783 36.8499 25.5 36.8499Z" fill="white"/>
<path d="M10 9.5H20" stroke="white"/>
<path d="M9.5 30C9.5 20 12 20 19.5 20C28 20 30.5 20 30.5 10" stroke="white"/>
</g>
<defs>
<clipPath id="clip0_7_171">
<rect width="40" height="40" fill="white"/>
</clipPath>
</defs>
</svg>
